<svg xmlns="http://www.w3.org/2000/svg" width="19.25" height="19.25" viewBox="0 0 19.25 19.25"><defs><style>.a{fill:none;}.b{fill:#47c05f;}</style></defs><path class="a" d="M0,0H19.25V19.25H0Z"/><path class="b" d="M16.643,12.93a9.178,9.178,0,0,1-2.831-.449.784.784,0,0,0-.81.193l-1.259,1.58A12.178,12.178,0,0,1,6.216,8.775L7.78,7.444a.819.819,0,0,0,.192-.818,8.945,8.945,0,0,1-.449-2.831A.8.8,0,0,0,6.73,3H3.954C3.521,3,3,3.192,3,3.794A13.757,13.757,0,0,0,16.643,17.437a.842.842,0,0,0,.794-.946V13.724a.8.8,0,0,0-.794-.794Z" transform="translate(-0.594 -0.594)"/></svg>